<!--?xml version="1.0" standalone="no"?-->
<svg version="1.0" xmlns="http://www.w3.org/2000/svg" viewBox="0 0 500.000000 500.000000" preserveAspectRatio="xMidYMid meet">
  <g transform="translate(0.000000,500.000000) scale(0.100000,-0.100000)" fill="rgb(0,0,0,0)" stroke="rgb(0,0,0)" stroke-width="0px">
    <path d="M0 2500 l0 -2500 2500 0 2500 0 0 2500 0 2500 -2500 0 -2500 0 0 -2500z m1491 1214 c72 -22 138 -87 169 -169 42 -114 39 -275 -15 -756 -71 -625 -88 -889 -66 -1028 14 -92 26 -117 47 -100 35 29 109 205 168 400 29 98 102 424 197 884 17 80 29 115 45 132 28 28 75 30 96 6 23 -26 27 -79 38 -448 9 -301 21 -468 37 -519 5 -18 6 -18 18 5 38 73 95 321 170 731 87 482 102 550 126 571 24 19 37 21 58 8 19 -12 7 -105 -64 -506 -95 -531 -153 -767 -213 -878 -60 -111 -165 -100 -197 21 -15 57 -31 257 -42 497 -7 176 -3 185 -79 -175 -83 -395 -193 -706 -279 -790 -26 -26 -45 -34 -83 -38 -44 -4 -52 -1 -85 27 -54 48 -68 101 -74 283 -6 171 -1 244 57 788 67 624 71 717 39 845 -23 93 -109 155 -215 155 -210 0 -582 -223 -791 -475 -140 -168 -194 -279 -201 -416 -5 -100 11 -150 73 -217 76 -85 184 -139 301 -150 61 -6 69 -10 72 -29 10 -66 -222 -32 -353 52 -116 74 -177 160 -197 273 -11 63 -10 85 4 153 47 227 242 472 525 661 265 178 537 254 714 202z m1761 -234 c46 -36 60 -91 65 -255 8 -236 -29 -447 -131 -747 -41 -122 -42 -126 -18 -107 13 10 41 23 60 29 60 16 102 -2 166 -71 53 -57 59 -61 91 -56 49 8 135 68 172 120 45 65 115 110 178 115 37 3 54 0 63 -11 18 -21 5 -44 -29 -51 -17 -3 -43 -15 -59 -26 -29 -21 -114 -139 -106 -148 3 -2 35 20 71 51 89 74 123 80 189 34 34 -24 73 -24 115 -2 l31 16 0 161 c0 297 38 646 86 800 33 104 64 138 127 138 38 0 49 -5 70 -30 71 -84 49 -359 -53 -674 -28 -83 -68 -189 -89 -236 -22 -46 -38 -86 -36 -88 2 -2 18 1 36 7 42 14 111 14 144 -1 38 -17 55 -58 55 -133 0 -36 3 -65 6 -65 3 0 65 27 138 59 158 72 183 79 192 57 12 -30 -35 -64 -210 -150 -94 -47 -205 -103 -246 -126 -81 -43 -110 -49 -131 -24 -11 14 -6 23 44 68 59 53 90 108 101 182 4 27 1 47 -8 60 -14 18 -15 18 -45 -10 -16 -16 -45 -62 -63 -102 -33 -75 -51 -91 -88 -79 -15 5 -21 19 -26 56 -5 41 -10 49 -23 44 -36 -14 -112 -17 -160 -5 l-51 12 -63 -51 c-76 -62 -132 -86 -183 -77 -27 6 -39 14 -47 35 l-10 28 -56 -19 c-65 -23 -131 -20 -163 8 -11 11 -34 38 -50 62 -16 23 -35 42 -43 42 -21 0 -60 -57 -104 -152 -22 -47 -47 -88 -56 -92 -29 -11 -51 -7 -69 13 -14 16 -17 35 -14 111 l3 91 -25 -8 c-32 -10 -136 -9 -176 1 -27 7 -36 3 -84 -38 -96 -82 -178 -105 -226 -65 -56 46 59 255 170 309 44 21 101 26 124 11 25 -16 8 -43 -38 -60 -32 -12 -57 -32 -91 -74 -46 -57 -70 -105 -46 -90 7 4 38 28 69 54 82 68 104 70 196 19 31 -17 37 -17 79 -3 24 9 46 20 48 27 2 6 9 157 15 336 20 581 34 725 76 767 30 30 100 32 136 3z"/>
    <path d="M3186 3340 c-8 -52 -36 -543 -35 -610 1 -43 1 -44 10 -15 34 110 64 555 42 635 l-10 35 -7 -45z"/>
    <path d="M4307 3343 c-10 -17 -46 -193 -56 -268 -5 -44 -15 -138 -21 -210 -5 -71 -12 -148 -14 -170 -8 -76 33 70 70 250 37 180 56 387 36 399 -6 3 -13 3 -15 -1z"/>
  </g>
  <g transform="translate(0.000000,500.000000) scale(0.100000,-0.100000)" fill="rgb(234,59,167)" stroke="rgb(234,59,167)" stroke-width="0px">
    <path d="M1190 3695 c-254 -66 -581 -287 -754 -509 -170 -217 -223 -417 -151 -574 66 -144 286 -271 450 -260 36 2 50 7 50 18 0 9 -11 16 -30 18 -79 6 -155 27 -210 55 -71 38 -153 117 -180 172 -27 56 -32 185 -10 262 71 248 393 573 715 721 237 108 415 92 484 -45 44 -88 45 -264 1 -668 -101 -922 -108 -1122 -44 -1246 38 -76 115 -90 177 -34 90 81 202 382 277 745 38 187 73 347 81 373 14 47 22 1 28 -160 8 -214 23 -410 38 -478 14 -67 57 -110 100 -101 41 8 55 21 83 77 70 137 165 566 265 1191 24 153 24 164 5 172 -25 9 -43 -4 -54 -37 -11 -34 -64 -306 -131 -672 -64 -346 -136 -622 -166 -632 -26 -9 -41 146 -54 547 -11 366 -16 425 -37 446 -22 21 -63 13 -84 -16 -11 -16 -46 -157 -94 -390 -92 -443 -126 -580 -177 -729 -128 -372 -194 -395 -205 -71 -6 169 9 358 69 885 32 283 41 399 42 540 1 198 -7 237 -65 322 -67 98 -230 128 -419 78z"/>
    <path d="M3133 3475 c-12 -8 -26 -30 -32 -48 -23 -73 -39 -307 -58 -882 -4 -121 -9 -213 -11 -204 -3 15 -6 16 -33 2 -47 -23 -89 -20 -136 11 -37 25 -45 27 -75 17 -18 -6 -62 -36 -98 -66 -71 -61 -95 -70 -80 -30 33 87 109 170 165 181 50 9 45 38 -8 42 -73 6 -178 -81 -233 -193 -31 -65 -29 -104 7 -124 39 -22 95 -2 176 65 65 52 70 54 108 47 69 -13 160 -9 187 9 l25 17 -5 -89 c-5 -102 1 -136 27 -145 34 -11 52 8 92 93 75 162 114 187 167 110 47 -69 68 -83 121 -83 71 0 137 29 152 68 7 18 15 36 17 40 2 5 -20 -5 -50 -22 -83 -47 -107 -43 -174 29 -68 72 -106 88 -161 65 -21 -9 -48 -26 -60 -37 -13 -12 -26 -19 -29 -16 -3 4 19 82 49 175 99 304 132 497 125 718 -6 153 -21 210 -66 245 -29 24 -79 26 -109 5z m85 -236 c5 -161 -10 -350 -39 -491 -19 -97 -36 -154 -43 -147 -5 6 32 695 40 744 8 51 13 60 27 46 7 -7 13 -67 15 -152z"/>
    <path d="M4262 3437 c-77 -82 -129 -395 -139 -839 -3 -142 -9 -255 -14 -253 -4 3 -20 0 -36 -6 -46 -17 -87 -13 -127 15 -22 14 -42 26 -47 26 -24 0 -69 -26 -127 -75 -74 -62 -97 -70 -82 -29 28 73 115 169 163 180 44 9 50 14 36 30 -28 34 -108 10 -181 -55 -59 -53 -124 -174 -114 -214 16 -65 96 -56 196 21 34 26 68 51 75 56 8 6 33 5 68 -3 65 -16 140 -8 167 19 17 17 18 16 22 -41 5 -71 17 -87 53 -71 14 6 25 17 25 24 0 24 51 123 78 151 54 56 90 23 73 -69 -17 -88 -44 -138 -100 -182 -42 -33 -48 -42 -36 -52 19 -16 43 -7 165 60 58 33 150 80 205 105 120 56 195 102 195 121 0 8 -2 14 -5 14 -13 0 -140 -53 -214 -89 -119 -57 -121 -57 -121 30 0 39 -5 79 -10 90 -25 46 -109 62 -177 34 -29 -12 -38 -13 -45 -3 -4 7 -6 18 -3 23 151 345 216 582 218 790 0 100 -14 166 -44 196 -27 27 -89 26 -117 -4z m74 -103 c24 -96 -86 -704 -127 -704 -11 0 -12 -17 11 242 20 227 38 343 65 436 17 57 40 69 51 26z"/>
  </g>
  <g transform="translate(0.000000,500.000000) scale(0.100000,-0.100000)" fill="rgb(90,22,64)" stroke="rgb(90,22,64)" stroke-width="0px">
    <path d="M3212 3200 c0 -14 2 -19 5 -12 2 6 2 18 0 25 -3 6 -5 1 -5 -13z"/>
  </g>
  <g transform="translate(0.000000,500.000000) scale(0.100000,-0.100000)" fill="rgb(234,58,166)" stroke="rgb(234,58,166)" stroke-width="0px">
    <path d="M3031 2344 c0 -11 3 -14 6 -6 3 7 2 16 -1 19 -3 4 -6 -2 -5 -13z"/>
  </g>
</svg>
